# xmcd
#
# Track frame offsets: 
#        150
#        18716
#        42038
#        71689
#        88426
#        112945
#        133925
#        151620
#        166866
#        191159
#        209255
#
# Disc length: 3060 seconds
#
# Revision: 1
# Processed by: cddbd v1.5.2PL0 Copyright (c) Steve Scherf et al.
# Submitted via: ExactAudioCopy v1.0b3
#
DISCID=950bf20b
DTITLE=Jon Zeeman - Down On My Luck
DYEAR=2013
DGENRE=Blues
TTITLE0=You're Right, I'm Wrong
TTITLE1=Down On My Luck
TTITLE2=Hangman's Bridge
TTITLE3=I Love Everybody
TTITLE4=Waitin for the Storm
TTITLE5=I Got News
TTITLE6=Money
TTITLE7=Got the Gun
TTITLE8=Can't You Hear Me
TTITLE9=So Bad
TTITLE10=Better Off Dead
EXTD=
EXTT0=
EXTT1=
EXTT2=
EXTT3=
EXTT4=
EXTT5=
EXTT6=
EXTT7=
EXTT8=
EXTT9=
EXTT10=
PLAYORDER=
